<mxfile host="app.diagrams.net" agent="Mozilla/5.0 (Windows NT 10.0; Win64; x64) AppleWebKit/537.36 (KHTML, like Gecko) Chrome/139.0.0.0 Safari/537.36" version="28.2.3">
  <diagram name="Trang-1" id="qiAn3goUmAfdsHOynnBU">
    <mxGraphModel dx="997" dy="603" grid="1" gridSize="10" guides="1" tooltips="1" connect="1" arrows="1" fold="1" page="1" pageScale="1" pageWidth="827" pageHeight="1169" math="0" shadow="0">
      <root>
        <mxCell id="0" />
        <mxCell id="1" parent="0" />
        <mxCell id="wc3mHq94IVvgU-dQzN5R-8" style="edgeStyle=orthogonalEdgeStyle;rounded=0;orthogonalLoop=1;jettySize=auto;html=1;exitX=1;exitY=0.5;exitDx=0;exitDy=0;" edge="1" parent="1" source="wc3mHq94IVvgU-dQzN5R-1" target="wc3mHq94IVvgU-dQzN5R-5">
          <mxGeometry relative="1" as="geometry" />
        </mxCell>
        <mxCell id="wc3mHq94IVvgU-dQzN5R-1" value="Bắt đầu" style="ellipse;whiteSpace=wrap;html=1;" vertex="1" parent="1">
          <mxGeometry x="100" y="280" width="140" height="80" as="geometry" />
        </mxCell>
        <mxCell id="wc3mHq94IVvgU-dQzN5R-9" style="edgeStyle=orthogonalEdgeStyle;rounded=0;orthogonalLoop=1;jettySize=auto;html=1;exitX=1;exitY=0.5;exitDx=0;exitDy=0;" edge="1" parent="1" source="wc3mHq94IVvgU-dQzN5R-5" target="wc3mHq94IVvgU-dQzN5R-10">
          <mxGeometry relative="1" as="geometry">
            <mxPoint x="590" y="320" as="targetPoint" />
          </mxGeometry>
        </mxCell>
        <mxCell id="wc3mHq94IVvgU-dQzN5R-5" value="Học sinh nhập kết quả&amp;nbsp;" style="shape=parallelogram;perimeter=parallelogramPerimeter;whiteSpace=wrap;html=1;fixedSize=1;" vertex="1" parent="1">
          <mxGeometry x="340" y="285" width="150" height="70" as="geometry" />
        </mxCell>
        <mxCell id="wc3mHq94IVvgU-dQzN5R-12" style="edgeStyle=orthogonalEdgeStyle;rounded=0;orthogonalLoop=1;jettySize=auto;html=1;exitX=0.5;exitY=1;exitDx=0;exitDy=0;" edge="1" parent="1" source="wc3mHq94IVvgU-dQzN5R-10">
          <mxGeometry relative="1" as="geometry">
            <mxPoint x="400" y="500" as="targetPoint" />
          </mxGeometry>
        </mxCell>
        <mxCell id="wc3mHq94IVvgU-dQzN5R-10" value="Hệ thống nhận thông tin" style="rounded=1;whiteSpace=wrap;html=1;" vertex="1" parent="1">
          <mxGeometry x="570" y="280" width="140" height="80" as="geometry" />
        </mxCell>
        <mxCell id="wc3mHq94IVvgU-dQzN5R-19" style="edgeStyle=orthogonalEdgeStyle;rounded=0;orthogonalLoop=1;jettySize=auto;html=1;exitX=0.5;exitY=1;exitDx=0;exitDy=0;" edge="1" parent="1" source="wc3mHq94IVvgU-dQzN5R-13" target="wc3mHq94IVvgU-dQzN5R-17">
          <mxGeometry relative="1" as="geometry" />
        </mxCell>
        <mxCell id="wc3mHq94IVvgU-dQzN5R-20" style="edgeStyle=orthogonalEdgeStyle;rounded=0;orthogonalLoop=1;jettySize=auto;html=1;exitX=0.5;exitY=1;exitDx=0;exitDy=0;" edge="1" parent="1" source="wc3mHq94IVvgU-dQzN5R-13" target="wc3mHq94IVvgU-dQzN5R-21">
          <mxGeometry relative="1" as="geometry">
            <mxPoint x="640" y="680" as="targetPoint" />
          </mxGeometry>
        </mxCell>
        <mxCell id="wc3mHq94IVvgU-dQzN5R-13" value="Kiểm tra xử lý dữ liệu" style="rhombus;whiteSpace=wrap;html=1;" vertex="1" parent="1">
          <mxGeometry x="300" y="500" width="190" height="80" as="geometry" />
        </mxCell>
        <mxCell id="wc3mHq94IVvgU-dQzN5R-16" value="" style="endArrow=classic;html=1;rounded=0;" edge="1" parent="1" target="wc3mHq94IVvgU-dQzN5R-17">
          <mxGeometry width="50" height="50" relative="1" as="geometry">
            <mxPoint x="200" y="680" as="sourcePoint" />
            <mxPoint x="400" y="580" as="targetPoint" />
          </mxGeometry>
        </mxCell>
        <mxCell id="wc3mHq94IVvgU-dQzN5R-17" value="Thông báo lỗi" style="rounded=1;whiteSpace=wrap;html=1;" vertex="1" parent="1">
          <mxGeometry x="120" y="680" width="120" height="60" as="geometry" />
        </mxCell>
        <mxCell id="wc3mHq94IVvgU-dQzN5R-22" style="edgeStyle=orthogonalEdgeStyle;rounded=0;orthogonalLoop=1;jettySize=auto;html=1;exitX=0.5;exitY=1;exitDx=0;exitDy=0;" edge="1" parent="1" source="wc3mHq94IVvgU-dQzN5R-21" target="wc3mHq94IVvgU-dQzN5R-23">
          <mxGeometry relative="1" as="geometry">
            <mxPoint x="640" y="830" as="targetPoint" />
          </mxGeometry>
        </mxCell>
        <mxCell id="wc3mHq94IVvgU-dQzN5R-21" value="Lưu trữ dữ liệu" style="rounded=1;whiteSpace=wrap;html=1;" vertex="1" parent="1">
          <mxGeometry x="580" y="680" width="120" height="60" as="geometry" />
        </mxCell>
        <mxCell id="wc3mHq94IVvgU-dQzN5R-24" style="edgeStyle=orthogonalEdgeStyle;rounded=0;orthogonalLoop=1;jettySize=auto;html=1;exitX=0.5;exitY=1;exitDx=0;exitDy=0;" edge="1" parent="1" source="wc3mHq94IVvgU-dQzN5R-23" target="wc3mHq94IVvgU-dQzN5R-25">
          <mxGeometry relative="1" as="geometry">
            <mxPoint x="640" y="960" as="targetPoint" />
          </mxGeometry>
        </mxCell>
        <mxCell id="wc3mHq94IVvgU-dQzN5R-23" value="Xuất kết quả" style="rounded=1;whiteSpace=wrap;html=1;" vertex="1" parent="1">
          <mxGeometry x="580" y="800" width="120" height="70" as="geometry" />
        </mxCell>
        <mxCell id="wc3mHq94IVvgU-dQzN5R-25" value="The end" style="ellipse;whiteSpace=wrap;html=1;" vertex="1" parent="1">
          <mxGeometry x="580" y="920" width="120" height="80" as="geometry" />
        </mxCell>
      </root>
    </mxGraphModel>
  </diagram>
</mxfile>
